# xmcd CD database file generated by OrangeCD 6.4
#
# Track frame offsets:
#	150
#	4650
#	18578
#	33384
#	46643
#	66553
#	80169
#	93950
#	107616
#	117705
#	134779
#	148140
#	162377
#	176927
#	190202
#	203159
#	219252
#	232854
#	247278
#
# Disc length: 3488 seconds
#
# Revision: 0
# Processed by: cddbd v1.5.2PL0 Copyright (c) Steve Scherf et al.
# Submitted via: OrangeCD 6.4
#
DISCID=1c0d9e13
DTITLE=Crazy Frog - Everybody Dance Now
DYEAR=2009
DGENRE=Euro-House
TTITLE0=Join The Frog
TTITLE1=Cha Cha Slide
TTITLE2=Everyone
TTITLE3=Daddy DJ
TTITLE4=Friends
TTITLE5=Maya Hi, Maya Hu
TTITLE6=Just Can't Get Enough
TTITLE7=Jump
TTITLE8=Solo Frog
TTITLE9=No Limit
TTITLE10=Play The Game
TTITLE11=Push It
TTITLE12=Gonna Make You Sweat
TTITLE13=Safety Dance
TTITLE14=Come On
TTITLE15=Let's Go Crazy
TTITLE16=Bump The Beat
TTITLE17=I Wanna Rock The Place
TTITLE18=Last Christmas
EXTD=
EXTT0=
EXTT1=
EXTT2=
EXTT3=
EXTT4=
EXTT5=
EXTT6=
EXTT7=
EXTT8=
EXTT9=
EXTT10=
EXTT11=
EXTT12=
EXTT13=
EXTT14=
EXTT15=
EXTT16=
EXTT17=
EXTT18=
PLAYORDER=
